<svg width="157" height="157" viewBox="0 0 157 157" fill="none" xmlns="http://www.w3.org/2000/svg">
    <g clip-path="url(#clip0_224_30157)">
        <path style="mix-blend-mode:screen" opacity="0.5" d="M78.8476 159.48C125.6 159.48 163.5 121.58 163.5 74.8275C163.5 28.0754 125.6 -9.82471 78.8476 -9.82471C32.0954 -9.82471 -5.80469 28.0754 -5.80469 74.8275C-5.80469 121.58 32.0954 159.48 78.8476 159.48Z" fill="url(#paint0_radial_224_30157)"/>
        <path d="M21.2144 35.7677C20.4831 36.7916 24.0668 118.267 25.6027 118.389C27.1142 118.511 126.192 118.901 127.557 117.926C128.922 116.951 138.381 37.6693 136.382 35.7677C134.383 33.8661 21.9458 34.7438 21.2144 35.7677Z" fill="url(#paint1_linear_224_30157)"/>
        <path d="M47.1328 34.9641L53.3495 41.3759C57.3721 41.3272 61.6629 41.2784 66.0999 41.254L61.4679 34.8179C56.4457 34.8666 51.5942 34.9154 47.1572 34.9885L47.1328 34.9641Z" fill="url(#paint2_linear_224_30157)"/>
        <path d="M73.1719 34.6957L76.9019 41.1563C81.3146 41.1563 85.8004 41.1319 90.3349 41.1319C90.9688 41.1319 91.5539 41.1319 92.1634 41.1319L87.2387 34.647C82.5823 34.647 77.8527 34.647 73.1719 34.6957Z" fill="url(#paint3_linear_224_30157)"/>
        <path d="M98.9922 34.6709L104.673 41.1802C109.11 41.2046 112.986 41.2533 116.375 41.3021L111.938 34.7684C107.915 34.7197 103.551 34.6953 98.9922 34.6709Z" fill="url(#paint4_linear_224_30157)"/>
        <path d="M124.492 34.9673L127.978 41.5497C128.759 41.5741 129.466 41.5985 130.099 41.6228C130.099 41.7204 130.099 41.8179 130.099 41.9154L136.341 35.7474C135.755 35.4061 131.343 35.1379 124.517 34.9673H124.492Z" fill="url(#paint5_linear_224_30157)"/>
        <path d="M136.017 49.4927L129.117 54.1247C128.776 57.8548 128.362 61.9505 127.898 66.2413L134.847 62.1455C135.31 57.5622 135.7 53.2715 136.017 49.5171V49.4927Z" fill="url(#paint6_linear_224_30157)"/>
        <path d="M130.759 97.6909L123.762 101.397C123.274 105.053 122.835 108.174 122.445 110.636L129.442 107.37C129.857 104.542 130.295 101.25 130.759 97.6909Z" fill="url(#paint7_linear_224_30157)"/>
        <path d="M99.2347 112.052C95.6753 112.052 91.6527 112.076 87.0938 112.101L89.6536 118.561C93.9931 118.561 98.2107 118.537 102.136 118.512L99.2347 112.052Z" fill="url(#paint8_linear_224_30157)"/>
        <path d="M21.3603 48.4222C21.4578 51.5672 21.6041 55.1509 21.7504 59.0029L28.089 55.3703C27.9427 51.8841 27.8452 48.6904 27.7477 45.9355L21.3359 48.3979L21.3603 48.4222Z" fill="url(#paint9_linear_224_30157)"/>
        <path d="M22.2891 71.5101C22.4597 75.2158 22.6304 78.9702 22.8254 82.6515L29.1153 78.0925C28.9202 74.3625 28.7496 70.5837 28.6033 66.9512L22.3134 71.5101H22.2891Z" fill="url(#paint10_linear_224_30157)"/>
        <path d="M23.4541 94.1571C23.6735 98.1309 23.9173 101.837 24.1367 105.103L30.2315 98.9598C30.0365 95.9368 29.8658 92.67 29.6708 89.2812L23.4297 94.1815L23.4541 94.1571Z" fill="url(#paint11_linear_224_30157)"/>
        <path d="M34.5226 118.489L33.4743 112.004C32.6454 112.004 31.8653 112.004 31.1583 112.004C31.0851 111.224 25.0391 115.685 25.0391 115.685C25.2341 117.416 25.4291 118.415 25.5998 118.44C25.868 118.44 29.2079 118.489 34.5226 118.513V118.489Z" fill="url(#paint12_linear_224_30157)"/>
        <path d="M53.3112 112.076C49.5324 112.076 46.0218 112.076 42.8281 112.052L44.8516 118.537C48.1672 118.537 51.7753 118.537 55.6029 118.561L53.3356 112.076H53.3112Z" fill="url(#paint13_linear_224_30157)"/>
        <path d="M79.0469 118.56L76.097 112.075C75.3656 112.075 74.6586 112.075 73.9273 112.075C70.7823 112.075 67.7105 112.075 64.6875 112.075L67.0035 118.56C69.2952 118.56 71.6112 118.56 73.9273 118.56C75.6338 118.56 77.3404 118.56 79.0469 118.56Z" fill="url(#paint14_linear_224_30157)"/>
        <path d="M127.603 117.831L122.288 111.614C122.288 111.614 122.288 111.712 122.288 111.761C119.923 111.834 116.242 111.882 110.586 111.956L114.657 118.392C122.288 118.294 127.286 118.148 127.578 117.929C127.578 117.929 127.603 117.855 127.627 117.831H127.603Z" fill="url(#paint15_linear_224_30157)"/>
        <path d="M126.63 77.8228C126.118 82.2843 125.606 86.7213 125.094 90.8902L132.091 87.1114C132.578 82.9913 133.09 78.7005 133.553 74.4585L126.654 77.8228H126.63Z" fill="url(#paint16_linear_224_30157)"/>
        <path d="M40.2824 41.5486L34.3826 35.1855C26.4594 35.3562 21.3885 35.5756 21.2422 35.795C21.2422 35.795 21.2422 35.8438 21.2422 35.8682L27.9465 41.8655C31.0183 41.768 35.2603 41.6704 40.3068 41.5729L40.2824 41.5486Z" fill="url(#paint17_linear_224_30157)"/>
        <path d="M27.9171 41.8411L21.2128 35.8438C21.2128 35.8438 21.1884 36.0144 21.1641 36.1607L27.8928 41.8411H27.9171Z" fill="#F20041"/>
        <g style="mix-blend-mode:multiply" opacity="0.4">
            <path d="M43.6953 54.443C43.6953 54.443 76.6074 82.6499 82.2146 82.2842C87.8219 81.9185 116.955 53.5166 116.955 53.5166C116.955 53.5166 85.7009 80.5289 82.4828 80.5289C79.2648 80.5289 43.6953 54.4186 43.6953 54.4186V54.443Z" fill="#C60055"/>
        </g>
        <path d="M135.484 36.7675C135.898 36.3774 136.215 35.9874 136.191 35.963C136.166 35.9386 135.727 36.1336 135.313 36.4993C131.949 39.4005 116.833 53.8086 103.303 64.8769C93.7217 72.727 85.3596 79.6995 82.3366 79.8458C79.2892 79.992 68.6598 73.0439 56.3482 63.6823C43.4272 53.8574 29.726 42.3747 24.6307 38.3765C23.3386 37.3526 22.4609 37.0113 22.4609 37.0113C22.4609 37.0113 23.0704 37.7914 24.46 38.9616C32.3346 45.4953 59.3956 67.6073 73.8282 76.8471C69.1717 80.1139 25.8253 117.804 25.9228 117.951C25.9472 117.999 26.581 117.731 28.6533 116.025C34.8213 110.929 47.6935 99.3249 49.5464 97.9596C51.5699 96.4725 67.8309 82.7469 72.9993 77.8954C73.6088 77.4078 74.0964 77.2616 74.4621 77.2372C78.119 79.5532 80.8982 80.9672 82.2391 80.9672C83.5799 80.9672 86.2373 79.3338 89.6748 76.7252C90.333 76.774 91.4057 77.2372 93.0391 79.0413C97.9881 84.5022 107.667 95.5217 108.154 96.1068C108.813 96.8869 127.17 117.634 127.316 117.512C127.463 117.39 108.593 95.7899 108.593 95.7899L90.6012 75.9938C94.2581 73.1658 98.6951 69.387 103.376 65.3644C116.858 53.8086 132.241 39.9368 135.484 36.8163V36.7675Z" fill="url(#paint18_linear_224_30157)"/>
        <g style="mix-blend-mode:multiply" opacity="0.4">
            <path d="M135.484 36.7666C135.484 36.7666 125.294 45.7382 114.031 55.7337C101.061 67.2164 86.5064 79.918 82.3131 79.8449C74.463 79.6742 22.4375 37.0104 22.4375 37.0104C22.4375 37.0104 52.5947 67.8259 71.2449 79.1866C66.8079 82.5754 26.5332 117.389 26.5332 117.389C26.5332 117.389 34.1396 112.464 36.7482 110.392C39.0398 108.588 65.1257 85.9153 72.342 79.8449C76.3646 82.1853 79.924 84.2088 82.2888 83.9894C84.5804 83.7699 87.5547 81.5514 91.1141 79.1866C95.478 84.0137 107.985 98.3975 113.689 104.566C120.589 112.001 127.074 117.95 127.074 117.95L92.4306 78.309C109.472 66.2656 135.46 36.8154 135.46 36.8154L135.484 36.7666Z" fill="#C60055"/>
        </g>
        <path style="mix-blend-mode:screen" d="M32.0884 40.4265C30.6257 42.6451 77.1658 78.6777 81.9198 77.2393C86.6738 75.8009 131.751 40.0121 128.46 39.8171C125.169 39.622 33.5512 38.208 32.0884 40.4265Z" fill="url(#paint19_linear_224_30157)"/>
        <g style="mix-blend-mode:multiply" opacity="0.4">
            <path d="M127.069 117.901C127.069 117.901 127.069 117.974 127.02 117.999C118.877 118.852 27.0646 118.486 25.6018 118.364C24.0903 118.267 20.5065 36.791 21.2379 35.7427C21.2379 35.7427 27.9422 112.708 31.4041 113.635C34.8659 114.561 126.337 115.975 127.093 117.877L127.069 117.901Z" fill="#C60055"/>
        </g>
        <g style="mix-blend-mode:overlay" opacity="0.3">
            <path d="M32.0824 40.4265C34.6423 40.1583 102.002 41.7186 124.773 40.3778C130.258 40.0608 130.989 38.013 130.112 37.5254C125.553 35.0387 26.524 36.0626 25.4756 36.282C24.4273 36.5014 28.9131 40.7434 32.0824 40.4265Z" fill="white"/>
        </g>
        <path style="mix-blend-mode:multiply" opacity="0.4" d="M29.8692 117.219C28.7477 115.902 56.2476 99.6168 78.7985 99.8362C101.349 100.056 126.094 116.658 123.193 117.487C120.292 118.316 30.6737 118.169 29.8448 117.219H29.8692Z" fill="url(#paint20_linear_224_30157)"/>
        <path style="mix-blend-mode:multiply" opacity="0.4" d="M127.581 117.926C127.581 117.926 127.386 117.999 127.118 118.024C127.118 117.951 127.118 117.926 127.118 117.926C127.118 117.926 130.75 68.1194 134.212 37.6696C129.946 35.4511 62.4148 35.3536 51.2734 34.8904C84.9413 34.4759 135.114 34.5003 136.455 35.768C138.454 37.694 128.995 116.976 127.654 117.926H127.581Z" fill="url(#paint21_linear_224_30157)"/>
        <path style="mix-blend-mode:multiply" opacity="0.4" d="M22.8427 40.1314C23.3303 39.7657 68.5052 73.1898 68.2614 77.4318C68.0176 81.6738 28.9132 113.147 28.5475 110.124C28.1818 107.101 21.2581 41.3504 22.8671 40.1314H22.8427Z" fill="url(#paint22_linear_224_30157)"/>
        <path style="mix-blend-mode:multiply" opacity="0.4" d="M133.693 43.9377C133.23 42.0849 94.8084 72.4859 96.4662 76.1916C98.124 79.9216 125.209 111.761 126.038 110.323C126.867 108.884 134.522 47.2533 133.693 43.9377Z" fill="url(#paint23_linear_224_30157)"/>
        <g style="mix-blend-mode:multiply" opacity="0.78">
            <path d="M127.579 117.928C127.579 117.928 126.921 118.002 125.775 118.124C125.678 118.124 125.556 118.124 125.458 118.124C110.904 118.806 27.0146 118.489 25.625 118.367C26.9415 118.367 68.7277 116.734 77.8211 116.734C86.9146 116.734 127.604 117.928 127.604 117.928H127.579Z" fill="#CD2F55"/>
        </g>
        <path style="mix-blend-mode:screen" d="M47.1111 53.5182C46.8429 56.273 77.5853 77.5074 81.9248 77.2393C86.2643 76.9711 119.079 51.5922 115.495 51.0315C111.911 50.4708 47.3793 50.7633 47.1111 53.5182Z" fill="url(#paint24_linear_224_30157)"/>
        <path style="mix-blend-mode:screen" d="M28.8984 37.8147C29.9955 37.8147 119.906 36.4251 120.443 38.0829C121.004 39.7407 77.7059 39.7407 73.5614 40.2771C69.4169 40.8134 28.8984 37.7904 28.8984 37.7904V37.8147Z" fill="url(#paint25_linear_224_30157)"/>
    </g>
    <defs>
        <radialGradient id="paint0_radial_224_30157" cx="0" cy="0" r="1" gradientUnits="userSpaceOnUse" gradientTransform="translate(78.8476 74.8275) scale(84.6523)">
            <stop offset="0.33" stop-color="#B41E87"/>
            <stop offset="0.38" stop-color="#A21B79"/>
            <stop offset="0.54" stop-color="#69114E"/>
            <stop offset="0.68" stop-color="#3B092C"/>
            <stop offset="0.82" stop-color="#1B0414"/>
            <stop offset="0.92" stop-color="#070105"/>
            <stop offset="1"/>
        </radialGradient>
        <linearGradient id="paint1_linear_224_30157" x1="78.8959" y1="116.317" x2="78.8959" y2="47.6648" gradientUnits="userSpaceOnUse">
            <stop stop-color="#FFBDCA"/>
            <stop offset="1" stop-color="#FFE8D3"/>
        </linearGradient>
        <linearGradient id="paint2_linear_224_30157" x1="55.3486" y1="52.6635" x2="52.4231" y2="86.1607" gradientUnits="userSpaceOnUse">
            <stop stop-color="#517EFF"/>
            <stop offset="1" stop-color="#6BA2FF"/>
        </linearGradient>
        <linearGradient id="paint3_linear_224_30157" x1="80.6807" y1="15.9724" x2="82.8505" y2="39.8641" gradientUnits="userSpaceOnUse">
            <stop stop-color="#A90086"/>
            <stop offset="1" stop-color="#FF003B"/>
        </linearGradient>
        <linearGradient id="paint4_linear_224_30157" x1="106.087" y1="41.7653" x2="98.6265" y2="59.3428" gradientUnits="userSpaceOnUse">
            <stop stop-color="#517EFF"/>
            <stop offset="1" stop-color="#6BA2FF"/>
        </linearGradient>
        <linearGradient id="paint5_linear_224_30157" x1="148.847" y1="19.8765" x2="120.835" y2="44.012" gradientUnits="userSpaceOnUse">
            <stop stop-color="#A90086"/>
            <stop offset="1" stop-color="#FF003B"/>
        </linearGradient>
        <linearGradient id="paint6_linear_224_30157" x1="138.991" y1="56.0263" x2="112.515" y2="62.8525" gradientUnits="userSpaceOnUse">
            <stop stop-color="#517EFF"/>
            <stop offset="1" stop-color="#6BA2FF"/>
        </linearGradient>
        <linearGradient id="paint7_linear_224_30157" x1="135.903" y1="104.078" x2="113.791" y2="104.298" gradientUnits="userSpaceOnUse">
            <stop stop-color="#517EFF"/>
            <stop offset="1" stop-color="#6BA2FF"/>
        </linearGradient>
        <linearGradient id="paint8_linear_224_30157" x1="94.5051" y1="122.34" x2="94.9195" y2="99.1795" gradientUnits="userSpaceOnUse">
            <stop stop-color="#517EFF"/>
            <stop offset="1" stop-color="#6BA2FF"/>
        </linearGradient>
        <linearGradient id="paint9_linear_224_30157" x1="21.3603" y1="52.4936" x2="28.1134" y2="52.4936" gradientUnits="userSpaceOnUse">
            <stop stop-color="#517EFF"/>
            <stop offset="1" stop-color="#6BA2FF"/>
        </linearGradient>
        <linearGradient id="paint10_linear_224_30157" x1="12.1229" y1="81.4569" x2="37.7212" y2="68.9259" gradientUnits="userSpaceOnUse">
            <stop stop-color="#A90086"/>
            <stop offset="1" stop-color="#FF003B"/>
        </linearGradient>
        <linearGradient id="paint11_linear_224_30157" x1="20.9918" y1="99.0574" x2="56.3662" y2="87.8916" gradientUnits="userSpaceOnUse">
            <stop stop-color="#517EFF"/>
            <stop offset="1" stop-color="#6BA2FF"/>
        </linearGradient>
        <linearGradient id="paint12_linear_224_30157" x1="27.4039" y1="133.969" x2="32.231" y2="99.6921" gradientUnits="userSpaceOnUse">
            <stop stop-color="#A90086"/>
            <stop offset="1" stop-color="#FF003B"/>
        </linearGradient>
        <linearGradient id="paint13_linear_224_30157" x1="49.5812" y1="120.389" x2="47.2895" y2="88.5257" gradientUnits="userSpaceOnUse">
            <stop stop-color="#517EFF"/>
            <stop offset="1" stop-color="#6BA2FF"/>
        </linearGradient>
        <linearGradient id="paint14_linear_224_30157" x1="69.1733" y1="138.015" x2="73.269" y2="103.518" gradientUnits="userSpaceOnUse">
            <stop stop-color="#A90086"/>
            <stop offset="1" stop-color="#FF003B"/>
        </linearGradient>
        <linearGradient id="paint15_linear_224_30157" x1="120.167" y1="131.508" x2="118.485" y2="105.446" gradientUnits="userSpaceOnUse">
            <stop stop-color="#A90086"/>
            <stop offset="1" stop-color="#FF003B"/>
        </linearGradient>
        <linearGradient id="paint16_linear_224_30157" x1="153.618" y1="80.017" x2="114.026" y2="84.3809" gradientUnits="userSpaceOnUse">
            <stop stop-color="#A90086"/>
            <stop offset="1" stop-color="#FF003B"/>
        </linearGradient>
        <linearGradient id="paint17_linear_224_30157" x1="14.2453" y1="18.2419" x2="31.384" y2="39.4763" gradientUnits="userSpaceOnUse">
            <stop stop-color="#A90086"/>
            <stop offset="1" stop-color="#FF003B"/>
        </linearGradient>
        <linearGradient id="paint18_linear_224_30157" x1="75.4128" y1="125.216" x2="78.2896" y2="59.6841" gradientUnits="userSpaceOnUse">
            <stop stop-color="#DF5D98"/>
            <stop offset="1" stop-color="#E56799"/>
        </linearGradient>
        <linearGradient id="paint19_linear_224_30157" x1="78.8724" y1="86.5766" x2="80.3108" y2="40.8654" gradientUnits="userSpaceOnUse">
            <stop stop-color="#FFA18D"/>
            <stop offset="0.11" stop-color="#FA9E8A"/>
            <stop offset="0.23" stop-color="#EC9582"/>
            <stop offset="0.36" stop-color="#D68776"/>
            <stop offset="0.5" stop-color="#B67365"/>
            <stop offset="0.64" stop-color="#8E594E"/>
            <stop offset="0.78" stop-color="#5C3A33"/>
            <stop offset="0.92" stop-color="#221613"/>
            <stop offset="1"/>
        </linearGradient>
        <linearGradient id="paint20_linear_224_30157" x1="76.4337" y1="120.729" x2="79.9443" y2="63.194" gradientUnits="userSpaceOnUse">
            <stop stop-color="white"/>
            <stop offset="1" stop-color="#C60055"/>
        </linearGradient>
        <linearGradient id="paint21_linear_224_30157" x1="84.1612" y1="77.9443" x2="124.363" y2="66.169" gradientUnits="userSpaceOnUse">
            <stop stop-color="white"/>
            <stop offset="1" stop-color="#C60055"/>
        </linearGradient>
        <linearGradient id="paint22_linear_224_30157" x1="47.2952" y1="74.36" x2="106.318" y2="71.9708" gradientUnits="userSpaceOnUse">
            <stop stop-color="white"/>
            <stop offset="1" stop-color="#C60055"/>
        </linearGradient>
        <linearGradient id="paint23_linear_224_30157" x1="119.383" y1="77.0692" x2="68.7225" y2="76.8742" gradientUnits="userSpaceOnUse">
            <stop stop-color="white"/>
            <stop offset="1" stop-color="#C60055"/>
        </linearGradient>
        <linearGradient id="paint24_linear_224_30157" x1="82.1198" y1="99.9852" x2="81.2909" y2="42.9132" gradientUnits="userSpaceOnUse">
            <stop stop-color="#FFA18D"/>
            <stop offset="0.11" stop-color="#FA9E8A"/>
            <stop offset="0.23" stop-color="#EC9582"/>
            <stop offset="0.36" stop-color="#D68776"/>
            <stop offset="0.5" stop-color="#B67365"/>
            <stop offset="0.64" stop-color="#8E594E"/>
            <stop offset="0.78" stop-color="#5C3A33"/>
            <stop offset="0.92" stop-color="#221613"/>
            <stop offset="1"/>
        </linearGradient>
        <linearGradient id="paint25_linear_224_30157" x1="76.6332" y1="16.556" x2="73.6101" y2="49.9069" gradientUnits="userSpaceOnUse">
            <stop stop-color="#FFA18D"/>
            <stop offset="0.11" stop-color="#FA9E8A"/>
            <stop offset="0.23" stop-color="#EC9582"/>
            <stop offset="0.36" stop-color="#D68776"/>
            <stop offset="0.5" stop-color="#B67365"/>
            <stop offset="0.64" stop-color="#8E594E"/>
            <stop offset="0.78" stop-color="#5C3A33"/>
            <stop offset="0.92" stop-color="#221613"/>
            <stop offset="1"/>
        </linearGradient>
        <clipPath id="clip0_224_30157">
            <rect width="156.041" height="156.041" fill="white" transform="translate(0.828125 0.90332)"/>
        </clipPath>
    </defs>
</svg>
